<?xml version="1.0" encoding="utf-8"?>
<!-- Generator: Adobe Illustrator 21.1.0, SVG Export Plug-In . SVG Version: 6.00 Build 0)  -->
<svg version="1.1" id="Leute" xmlns="http://www.w3.org/2000/svg" xmlns:xlink="http://www.w3.org/1999/xlink" x="0px" y="0px"
	 viewBox="0 0 1535.1 898.9" style="enable-background:new 0 0 1535.1 898.9;" xml:space="preserve">
<style type="text/css">
	.st0{fill:#EE7900;}
	.st1{fill:none;stroke:#EE7900;stroke-width:5.67;}
</style>
<title>3-Ebenen</title>
<g>
	<path class="st0" d="M936.2,556.2c7.1,0,12.8-5.1,12.8-11.4s-5.7-11.4-12.8-11.4c-7.1,0-12.8,5.1-12.8,11.4
		S929.2,556.2,936.2,556.2"/>
	<path class="st0" d="M540.7,510.7c7.1,0,12.8-5.1,12.8-11.4c0-6.3-5.7-11.4-12.8-11.4s-12.8,5.1-12.8,11.4
		C527.9,505.6,533.6,510.7,540.7,510.7"/>
	<polyline class="st1" points="541.8,499.3 523.7,427 591.7,262.7 554.6,216.6 614.3,194.5 814.5,216.6 951.1,303 1149.7,495.2 
		1535.1,454.5 	"/>
	<path class="st0" d="M1077.3,246.5c7.1,0,12.8-5.1,12.8-11.4s-5.7-11.4-12.8-11.4s-12.8,5.1-12.8,11.4
		C1064.5,241.4,1070.3,246.5,1077.3,246.5"/>
	<polyline class="st1" points="1077.3,235.1 1017.5,310 999.4,401.5 1012.2,510.8 986.6,557.6 918,635.7 939,1021.5 	"/>
	<path class="st0" d="M494.1,401.1c7.1,0,12.8-5.1,12.8-11.4s-5.7-11.4-12.8-11.4s-12.8,5.1-12.8,11.4S487,401.1,494.1,401.1"/>
	<polyline class="st1" points="494.1,389.7 512.1,349.6 549.4,361.1 608,390.1 655.9,490.7 658.7,550.9 610,1005.5 	"/>
	<path class="st0" d="M668.8,422.4c7.1,0,12.8-5.1,12.8-11.4s-5.7-11.4-12.8-11.4S656,404.7,656,411S661.7,422.4,668.8,422.4"/>
	<polyline class="st1" points="668.8,412.5 685.7,466.4 641.4,531.1 637,597.8 661.9,693.4 688,933.5 	"/>
	<path class="st0" d="M346.3,774c7.1,0,12.8-5.1,12.8-11.4s-5.7-11.4-12.8-11.4s-12.8,5.1-12.8,11.4S339.2,774,346.3,774"/>
	<polyline class="st1" points="350.4,762.6 429.7,751.2 495.3,740 529,714 529,607.5 686.6,481.8 1042.6,498.4 1621.1,819.5 	"/>
	<path class="st0" d="M537.7,297.4c7.1,0,12.8-5.1,12.8-11.4s-5.7-11.4-12.8-11.4s-12.8,5.1-12.8,11.4S530.6,297.4,537.7,297.4"/>
	<polyline class="st1" points="537.7,283.9 574.5,326.8 576.8,455.3 592.4,607.5 389.4,702.6 522,1013.5 	"/>
	<path class="st0" d="M425.6,438.4c7.1,0,12.8-5.1,12.8-11.4s-5.7-11.4-12.8-11.4s-12.8,5.1-12.8,11.4S418.5,438.4,425.6,438.4"/>
	<polyline class="st1" points="425.6,423.9 438.4,457.4 453.2,493.3 364.3,596.3 -121,988.5 	"/>
	<path class="st0" d="M143.4,607.7c7.1,0,12.8-5.1,12.8-11.4s-5.7-11.4-12.8-11.4s-12.8,5.1-12.8,11.4S136.4,607.7,143.4,607.7"/>
	<polyline class="st1" points="143.4,596.3 224.7,533.4 325.8,557.6 436.2,519.7 614.7,668.5 965,974.5 	"/>
	<path class="st0" d="M694.4,600.7c7.1,0,12.8-5.1,12.8-11.4s-5.7-11.4-12.8-11.4s-12.8,5.1-12.8,11.4S687.3,600.7,694.4,600.7"/>
	<polyline class="st1" points="694.4,589.3 707.2,600.7 748.5,644.1 779.7,620.3 906.9,395.3 798,-34.5 	"/>
	<path class="st0" d="M267.2,423.9c7.1,0,12.8-5.1,12.8-11.4s-5.7-11.4-12.8-11.4s-12.8,5.1-12.8,11.4S260.2,423.9,267.2,423.9"/>
	<polyline class="st1" points="264.5,412.9 193.1,328.1 300.2,160.6 334,-44.5 	"/>
	<path class="st0" d="M366.6,134.6c7.1,0,12.8-5.1,12.8-11.4c0-6.3-5.7-11.4-12.8-11.4s-12.8,5.1-12.8,11.4S359.5,134.6,366.6,134.6
		"/>
	<polyline class="st1" points="366.6,123.2 385.3,180.1 385.3,253.6 304.6,322.7 244.4,339.5 -41,429.5 	"/>
	<path class="st0" d="M688.3,265c7.1,0,12.8-5.1,12.8-11.4s-5.7-11.4-12.8-11.4s-12.8,5.1-12.8,11.4S681.2,265,688.3,265"/>
	<polyline class="st1" points="688.3,253.6 587.5,228 485.3,286 366.6,424.3 351.5,510.8 385.3,655.8 -103,698.5 	"/>
	<path class="st0" d="M517.1,239.4c7.1,0,12.8-5.1,12.8-11.4s-5.7-11.4-12.8-11.4s-12.8,5.1-12.8,11.4
		C504.3,234.3,510.1,239.4,517.1,239.4"/>
	<polyline class="st1" points="521.7,228 643.1,339.5 779.7,519.7 986.6,782.9 1075,1005.5 	"/>
	<path class="st0" d="M716.2,516.1c7.1,0,12.8-5.1,12.8-11.4c0-6.3-5.7-11.4-12.8-11.4s-12.8,5.1-12.8,11.4S709.2,516.1,716.2,516.1
		"/>
	<path class="st0" d="M682.2,146c7.1,0,12.8-5.1,12.8-11.4c0-6.3-5.7-11.4-12.8-11.4s-12.8,5.1-12.8,11.4S675.1,146,682.2,146"/>
	<polyline class="st1" points="716.2,504.7 661.9,466.4 643.1,390.1 645.9,0 	"/>
	<polyline class="st1" points="682.2,134.6 668.8,157.2 512.1,183.1 342,228 0,232 	"/>
	<path class="st0" d="M787.9,180.1c7.1,0,12.8-5.1,12.8-11.4c0-6.3-5.7-11.4-12.8-11.4s-12.8,5.1-12.8,11.4S780.9,180.1,787.9,180.1
		"/>
	<polyline class="st1" points="787.9,168.7 735.3,228 729,274.6 764.1,411 746.6,573.2 812,967.5 	"/>
	<path class="st0" d="M720,437.7c7.1,0,12.8-5.1,12.8-11.4s-5.7-11.4-12.8-11.4s-12.8,5.1-12.8,11.4S712.9,437.7,720,437.7"/>
	<polyline class="st1" points="720.3,423.9 796.7,401.1 965.1,365.3 1474.1,24.5 	"/>
	<path class="st0" d="M716.2,406.7c7.1,0,12.8-5.1,12.8-11.4s-5.7-11.4-12.8-11.4s-12.8,5.1-12.8,11.4S709.2,406.7,716.2,406.7"/>
	<polyline class="st1" points="716.2,395 823.2,183.1 953.7,124.6 965,-27.5 	"/>
	<polyline class="st1" points="936.2,546.2 923.4,589.3 973.8,620.3 1160,740.5 1179,811.9 1163.4,898.9 	"/>
	<path class="st0" d="M795.1,509.8c7.1,0,12.8-5.1,12.8-11.4c0-6.3-5.7-11.4-12.8-11.4s-12.8,5.1-12.8,11.4
		C782.4,504.7,788.1,509.8,795.1,509.8"/>
	<polyline class="st1" points="791.9,498.4 774.9,487 703.4,452.5 590.2,412.9 431.8,577.7 215.4,586.1 -103,442.5 	"/>
	<path class="st0" d="M694.4,349.6c7.1,0,12.8-5.1,12.8-11.4s-5.7-11.4-12.8-11.4s-12.8,5.1-12.8,11.4S687.3,349.6,694.4,349.6"/>
	<polyline class="st1" points="694.4,332.8 755.2,390.1 810.4,365.3 999.4,239.4 999.4,95.9 537.7,95.9 426,-14.5 	"/>
</g>
</svg>
