<?xml version="1.0" encoding="utf-8"?>
<!-- Generator: Adobe Illustrator 21.1.0, SVG Export Plug-In . SVG Version: 6.00 Build 0)  -->
<svg version="1.1" id="Leute" xmlns="http://www.w3.org/2000/svg" xmlns:xlink="http://www.w3.org/1999/xlink" x="0px" y="0px"
	 viewBox="0 0 1745.3 1066.6" style="enable-background:new 0 0 1745.3 1066.6;" xml:space="preserve">
<style type="text/css">
	.st0{fill:#EE7900;}
	.st1{fill:none;stroke:#EE7900;stroke-width:5.67;}
</style>
<title>3-Ebenen</title>
<g>
	<path class="st0" d="M1059,601.2c7.1,0,12.8-5.1,12.8-11.4s-5.7-11.4-12.8-11.4c-7.1,0-12.8,5.1-12.8,11.4S1052,601.2,1059,601.2"
		/>
	<path class="st0" d="M663.5,555.7c7.1,0,12.8-5.1,12.8-11.4c0-6.3-5.7-11.4-12.8-11.4s-12.8,5.1-12.8,11.4
		C650.7,550.6,656.4,555.7,663.5,555.7"/>
	<polyline class="st1" points="664.6,544.3 646.5,472 714.5,307.7 677.4,261.6 737.1,239.5 937.3,261.6 1073.9,348 1272.5,540.2 
		1657.9,499.5 	"/>
	<path class="st0" d="M1200.1,291.5c7.1,0,12.8-5.1,12.8-11.4s-5.7-11.4-12.8-11.4s-12.8,5.1-12.8,11.4
		C1187.3,286.4,1193.1,291.5,1200.1,291.5"/>
	<polyline class="st1" points="1200.1,280.1 1140.3,355 1122.2,446.5 1135,555.8 1109.4,602.6 1040.8,680.7 1061.8,1066.5 	"/>
	<path class="st0" d="M616.9,446.1c7.1,0,12.8-5.1,12.8-11.4s-5.7-11.4-12.8-11.4s-12.8,5.1-12.8,11.4S609.8,446.1,616.9,446.1"/>
	<polyline class="st1" points="616.9,434.7 634.9,394.6 672.2,406.1 730.8,435.1 778.7,535.7 781.5,595.9 732.8,1050.5 	"/>
	<path class="st0" d="M791.6,467.4c7.1,0,12.8-5.1,12.8-11.4s-5.7-11.4-12.8-11.4s-12.8,5.1-12.8,11.4S784.5,467.4,791.6,467.4"/>
	<polyline class="st1" points="791.6,457.5 808.5,511.4 764.2,576.1 759.8,642.8 784.7,738.4 810.8,978.5 	"/>
	<path class="st0" d="M469.1,819c7.1,0,12.8-5.1,12.8-11.4s-5.7-11.4-12.8-11.4s-12.8,5.1-12.8,11.4S462,819,469.1,819"/>
	<polyline class="st1" points="473.2,807.6 552.5,796.2 618.1,785 651.8,759 651.8,652.5 809.4,526.8 1165.4,543.4 1743.9,864.5 	
		"/>
	<path class="st0" d="M660.5,342.4c7.1,0,12.8-5.1,12.8-11.4s-5.7-11.4-12.8-11.4s-12.8,5.1-12.8,11.4S653.4,342.4,660.5,342.4"/>
	<polyline class="st1" points="660.5,328.9 697.3,371.8 699.6,500.3 715.2,652.5 512.2,747.6 644.8,1058.5 	"/>
	<path class="st0" d="M548.4,483.4c7.1,0,12.8-5.1,12.8-11.4s-5.7-11.4-12.8-11.4s-12.8,5.1-12.8,11.4S541.3,483.4,548.4,483.4"/>
	<polyline class="st1" points="548.4,468.9 561.2,502.4 576,538.3 487.1,641.3 1.8,1033.5 	"/>
	<path class="st0" d="M266.2,652.7c7.1,0,12.8-5.1,12.8-11.4s-5.7-11.4-12.8-11.4s-12.8,5.1-12.8,11.4S259.2,652.7,266.2,652.7"/>
	<polyline class="st1" points="266.2,641.3 347.5,578.4 448.6,602.6 559,564.7 737.5,713.5 1087.8,1019.5 	"/>
	<path class="st0" d="M817.2,645.7c7.1,0,12.8-5.1,12.8-11.4s-5.7-11.4-12.8-11.4s-12.8,5.1-12.8,11.4S810.1,645.7,817.2,645.7"/>
	<polyline class="st1" points="817.2,634.3 830,645.7 871.3,689.1 902.5,665.3 1029.7,440.3 920.8,10.5 	"/>
	<path class="st0" d="M390,468.9c7.1,0,12.8-5.1,12.8-11.4s-5.7-11.4-12.8-11.4s-12.8,5.1-12.8,11.4S383,468.9,390,468.9"/>
	<polyline class="st1" points="387.3,457.9 315.9,373.1 423,205.6 456.8,0.5 	"/>
	<path class="st0" d="M489.4,179.6c7.1,0,12.8-5.1,12.8-11.4c0-6.3-5.7-11.4-12.8-11.4s-12.8,5.1-12.8,11.4S482.3,179.6,489.4,179.6
		"/>
	<polyline class="st1" points="489.4,168.2 508.1,225.1 508.1,298.6 427.4,367.7 367.2,384.5 81.8,474.5 	"/>
	<path class="st0" d="M811.1,310c7.1,0,12.8-5.1,12.8-11.4s-5.7-11.4-12.8-11.4s-12.8,5.1-12.8,11.4S804,310,811.1,310"/>
	<polyline class="st1" points="811.1,298.6 710.3,273 608.1,331 489.4,469.3 474.3,555.8 508.1,700.8 19.8,743.5 	"/>
	<path class="st0" d="M639.9,284.4c7.1,0,12.8-5.1,12.8-11.4s-5.7-11.4-12.8-11.4s-12.8,5.1-12.8,11.4
		C627.1,279.3,632.9,284.4,639.9,284.4"/>
	<polyline class="st1" points="644.5,273 765.9,384.5 902.5,564.7 1109.4,827.9 1197.8,1050.5 	"/>
	<path class="st0" d="M839,561.1c7.1,0,12.8-5.1,12.8-11.4c0-6.3-5.7-11.4-12.8-11.4s-12.8,5.1-12.8,11.4S832,561.1,839,561.1"/>
	<path class="st0" d="M805,191c7.1,0,12.8-5.1,12.8-11.4c0-6.3-5.7-11.4-12.8-11.4s-12.8,5.1-12.8,11.4S797.9,191,805,191"/>
	<polyline class="st1" points="839,549.7 784.7,511.4 765.9,435.1 768.7,45 	"/>
	<polyline class="st1" points="805,179.6 791.6,202.2 634.9,228.1 464.8,273 122.8,277 	"/>
	<path class="st0" d="M910.7,225.1c7.1,0,12.8-5.1,12.8-11.4c0-6.3-5.7-11.4-12.8-11.4s-12.8,5.1-12.8,11.4S903.7,225.1,910.7,225.1
		"/>
	<polyline class="st1" points="910.7,213.7 858.1,273 851.8,319.6 886.9,456 869.4,618.2 934.8,1012.5 	"/>
	<path class="st0" d="M842.8,482.7c7.1,0,12.8-5.1,12.8-11.4s-5.7-11.4-12.8-11.4S830,465,830,471.3S835.7,482.7,842.8,482.7"/>
	<polyline class="st1" points="843.1,468.9 919.5,446.1 1087.9,410.3 1596.9,69.5 	"/>
	<path class="st0" d="M839,451.7c7.1,0,12.8-5.1,12.8-11.4s-5.7-11.4-12.8-11.4s-12.8,5.1-12.8,11.4S832,451.7,839,451.7"/>
	<polyline class="st1" points="839,440 946,228.1 1076.5,169.6 1087.8,17.5 	"/>
	<polyline class="st1" points="1059,591.2 1046.2,634.3 1096.6,665.3 1282.8,785.5 1301.8,856.9 1286.2,943.9 	"/>
	<path class="st0" d="M917.9,554.8c7.1,0,12.8-5.1,12.8-11.4c0-6.3-5.7-11.4-12.8-11.4s-12.8,5.1-12.8,11.4
		C905.2,549.7,910.9,554.8,917.9,554.8"/>
	<polyline class="st1" points="914.7,543.4 897.7,532 826.2,497.5 713,457.9 554.6,622.7 338.2,631.1 19.8,487.5 	"/>
	<path class="st0" d="M817.2,394.6c7.1,0,12.8-5.1,12.8-11.4s-5.7-11.4-12.8-11.4s-12.8,5.1-12.8,11.4S810.1,394.6,817.2,394.6"/>
	<polyline class="st1" points="817.2,377.8 878,435.1 933.2,410.3 1122.2,284.4 1122.2,140.9 660.5,140.9 548.8,30.5 	"/>
</g>
</svg>
