<?xml version="1.0" encoding="utf-8"?>
<!-- Generator: Adobe Illustrator 21.1.0, SVG Export Plug-In . SVG Version: 6.00 Build 0)  -->
<svg version="1.1" id="Leute" xmlns="http://www.w3.org/2000/svg" xmlns:xlink="http://www.w3.org/1999/xlink" x="0px" y="0px"
	 viewBox="0 0 1486 916" style="enable-background:new 0 0 1486 916;" xml:space="preserve">
<style type="text/css">
	.st0{fill:none;stroke:#E20613;stroke-width:4.92;}
</style>
<title>3-Ebenen</title>
<path class="st0" d="M206.6,51.7l15.1-36.6 M209.8,67.7l16-35.3 M212.9,83.9l16.1-35 M215.9,100.2l16.3-34.9 M218.9,116.4l16.3-34.9
	 M221.9,132.7l16.4-34.9 M224.9,149.1l16.4-34.8 M227.9,165.2l16.5-34.8 M230.8,181.6l16.5-34.8 M233.7,197.9l16.5-34.8
	 M236.6,214.2l16.6-34.7 M239.5,230.5l16.6-34.7 M242.4,246.8l16.6-34.7 M245.3,263.1l16.6-34.7 M248.2,279.5l16.7-34.7
	 M251.2,295.6l16.6-34.5 M253.3,311.2l17.3-33.8 M255.1,327.4l18.6-33.1 M256.7,343.7l19.3-32.4 M262.6,367.6l15-39.2 M275.2,380.5
	l3.8-35.3 M287.5,389.1l-6.8-38.8 M299.7,396.3l-10.1-38.4 M311.9,402.9L300.3,365 M324.1,409.1l-12.4-37.6 M336.3,414.9l-12.9-37.2
	 M348.6,420.6l-13.4-36.9 M360.9,426l-13.7-36.8 M373.2,431.4l-14-36.6 M385.5,436.5l-14.2-36.4 M397.8,441.6l-14.4-36.3
	 M410.2,446.5l-14.6-36.2 M422.5,451.5l-14.7-36 M435,456.5l-14.8-36.2 M447.4,461.2l-14.9-35.9 M459.8,466l-15-35.9 M472.2,470.7
	l-15.1-35.8 M484.6,475.2l-15.2-35.8 M497,479.9l-15.3-35.8 M509.4,484.5L494,448.8 M521.8,489l-15.4-35.7 M534.3,493.6l-15.5-35.7
	 M546.6,498l-15.5-35.5 M559.1,502.4l-15.6-35.5 M571.5,506.9L556,471.3 M584,511.3l-15.6-35.5 M596.4,515.7l-15.7-35.4 M608.9,520
	l-15.7-35.4 M621.3,524.4L605.7,489 M633.8,528.7L618,493.3 M646.2,533l-15.8-35.4 M658.7,537.3l-15.8-35.4 M671.1,541.6l-15.8-35.4
	 M683.6,545.8l-15.8-35.4 M696,550.1l-15.8-35.4 M708.5,554.3l-15.8-35.2 M720.9,558.8l-15.8-35.4 M733.3,563.1l-15.8-35.4
	 M745.8,567.3L730,531.9 M758.2,571.6l-15.8-35.4 M770.7,576L755,540.6 M783,580.6l-15.6-35.5 M795.4,585.2l-15.5-35.5 M807.5,589.7
	L792.4,554 M819.4,594.6l-14.6-36 M832.3,600.3l-15-36.9 M845.3,604.5l-14.9-35.4 M858.1,607.9l-16.8-34.4 M870.9,611.2l-17.3-34
	 M883.6,614.4L866,580.6 M896.2,617.3l-17.8-33.6 M909,620.3l-18-33.5 M921.7,623.2l-18.1-33.4 M934.5,626l-18.1-33.5 M947.2,628.7
	L929,595.4 M960,631.4l-18.3-33.3 M972.7,634.4l-18.3-33.3 M985.4,637l-18.4-33.1 M998.2,639.7l-18.5-33.1 M1010.8,642.3l-18.4-33.1
	 M1023.6,644.9l-18.5-33.1 M1036.3,647.5l-18.5-33 M1049,650l-18.5-33 M1061.8,652.7l-18.6-33 M1074.6,655.2l-18.6-33 M1087.3,657.8
	l-18.6-33 M1100,660.3l-18.6-33 M1112.7,662.8l-18.6-32.9 M1125.4,665.3l-18.7-32.9 M1138.2,667.9l-18.7-32.9 M1150.9,670.4
	l-18.7-32.9 M1163.7,672.9L1145,640 M1176.4,675.5l-18.7-32.9 M1189.2,678l-18.7-32.9 M1202,680.4l-18.7-32.9 M1214.7,682.8
	l-18.7-32.9 M1227.5,685.2l-18.8-32.9 M1240.2,687.6l-18.8-32.8 M1253,690.1l-18.8-32.8 M1265.7,692.5l-18.7-32.8 M1278.5,694.9
	l-18.8-32.8 M1291.3,697.3l-18.8-32.8 M1304,699.7l-18.8-32.8 M1316.8,702.1l-18.8-32.8 M1329.5,704.6l-18.8-32.8 M1342.3,707
	l-18.8-32.8 M1355,709.4l-18.9-32.8 M1367.8,711.8L1349,679 M1380.6,714.2l-18.9-32.8 M1393.3,716.4l-18.9-32.6 M1407.6,717.6
	l-20.4-31.5 M1420.6,717.7l-20.6-29.2 M1433.4,717.8l-22.1-29.1 M1446.3,717.8l-22.1-29.1 M1459.3,717.8l-22.1-29.1 M1472.1,717.8
	l-22.1-29.1 M1485.1,717.8l-22.1-29.1 M1498,717.8l-22.1-29.1 M199.6,42.6L214.7,6 M193.8,33.7l15.1-36.6 M187,24.9l15.1-36.6"/>
</svg>
