<?xml version="1.0" encoding="utf-8"?>
<!-- Generator: Adobe Illustrator 21.1.0, SVG Export Plug-In . SVG Version: 6.00 Build 0)  -->
<svg version="1.1" id="Leute" xmlns="http://www.w3.org/2000/svg" xmlns:xlink="http://www.w3.org/1999/xlink" x="0px" y="0px"
	 viewBox="0 0 55.5 29" style="enable-background:new 0 0 55.5 29;" xml:space="preserve">
<style type="text/css">
	.st0{clip-path:url(#SVGID_2_);fill:none;stroke:#E20613;stroke-width:4.92;}
</style>
<title>3-Ebenen</title>
<g>
	<defs>
		<rect id="SVGID_1_" x="-109" y="-46.9" width="1567.7" height="939.1"/>
	</defs>
	<clipPath id="SVGID_2_">
		<use xlink:href="#SVGID_1_"  style="overflow:visible;"/>
	</clipPath>
	<path class="st0" d="M-73.6,63.5l-32.5-0.1 M-63.9,55.9l-32.2-3.1 M-53.5,48.8l-31.9-5.2 M-42.9,42.3l-31.5-7 M-31.7,36.2
		l-31.2-8.6 M-20.9,31l-30.2-10.3 M-10.4,28.4l-28.5-14.1 M-25,8.3 M1.7,26.9 M27.2,25.8L3.4,3.9 M40.2,25.8L17,3.2 M53.1,25.9
		L30.4,2.8 M43.8,2.9 M57.2,3.2 M157.5,32.4 M170.6,33.6L150,8.8 M183.7,34.9L163.1,10 M196.8,36.2l-20.4-25 M209.8,37.6l-20.3-25.1
		 M222.9,39.1l-20.2-25.2 M235.9,40.6l-20.1-25.3 M248.9,42.2l-20-25.4 M261.9,43.8L242,18.3 M275,45.5l-19.8-25.6 M288,47.2
		l-19.7-25.6 M301,49l-19.6-25.7 M314,50.8L294.6,25 M327,52.8l-19.3-25.9 M339.9,54.7l-19.2-26 M352.9,56.8l-19-26.1 M365.8,59
		l-18.9-26.2 M378.7,61.2L360,34.9 M391.5,63.5L373.1,37 M404.3,66l-18.2-26.7 M417,68.7l-17.8-27 M429.6,71.5l-17.4-27.2 M442,74.7
		l-16.7-27.6 M453.6,78.4l-15.2-28.2 M465.7,83.3l-14.1-29.7 M478.5,88l-13.2-29.6 M491.1,92.2l-14.1-29 M503.8,96.2l-14.6-28.8
		 M516.3,100.2l-14.8-28.7 M528.9,104.2L514,75.6 M541.5,108.2l-15-28.7 M554,112.1l-14.9-28.7 M566.6,116.1l-14.9-28.7 M579.1,120
		l-14.9-28.7 M591.7,124.1l-14.8-28.7 M604.2,128.2l-14.7-28.8 M616.7,132.2L602,103.4 M629.1,136.3l-14.6-28.8 M641.5,140.5
		L627,111.6 M654,144.7l-14.3-29 M666.4,148.9l-14.2-29 M678.8,153.2l-14.1-29.1 M691.2,157.6l-14-29.1 M703.5,162l-13.8-29.2
		 M715.9,166.5l-13.7-29.3 M728.1,171.1l-13.6-29.3 M740.4,175.7L727,146.3 M752.6,180.3l-13.3-29.5 M765,185.2l-13.1-29.5
		 M777.2,190l-12.9-29.6 M789.3,194.9l-12.8-29.7 M801.4,199.8L788.9,170 M813.5,204.9l-12.3-29.8 M825.6,210l-12.2-29.9
		 M837.5,215.2l-11.9-30 M849.5,220.5l-11.7-30.1 M861.4,225.9l-11.5-30.2 M873.3,231.4l-11.2-30.3 M885.1,237l-11-30.4
		 M896.8,242.7l-10.6-30.5 M908.6,248.5l-10.4-30.6 M920.2,254.4l-10.1-30.7 M931.8,260.4l-9.8-30.8 M943.3,266.6l-9.5-30.9
		 M954.8,272.9l-9.1-31 M966.1,279.3l-8.7-31.1 M977.3,285.9l-8.4-31.2 M988.5,292.6l-8-31.3 M999.5,299.5l-7.6-31.5 M1010.4,306.5
		l-7-31.5 M1021.2,313.7l-6.5-31.6 M1031.9,321.1l-6-31.8 M1042.4,328.6l-5.4-31.8 M1052.8,336.4l-4.8-31.9 M1059.5,342.4l-0.7-30.1
		 M1066.2,353.3l3.3-33 M1072.3,364.3l8.5-31.1 M1077.7,375.6l10-30.7 M1082.4,387.1l11.7-30.1 M1086.3,398.8l13.7-29.2
		 M1089.4,410.6l15.7-28 M1091.5,422.9l17.8-27 M1092.5,435l20-25.3 M1092.4,446.9l22.2-23.3 M1091.2,459l24.3-21.2 M1088.8,470.9
		L1115,452 M1085.3,482.4l27.8-16.4 M1080.7,493.8l29.2-13.6 M1075.3,504.7l30.3-11.1 M1068.9,515.3l31.1-8.6 M1061.7,525.5
		l31.7-6.4 M1054,535.1l32-4.3 M1045.5,544.4l32.2-2.3 M1036.6,553.3l32.3-0.6 M1027.2,561.8l32.3,1 M1017.4,570l32.2,2.4
		 M1007.3,577.8l32.2,3.6 M996.9,585.3l32,4.8 M986.3,592.5l31.8,5.8 M975.4,599.4l31.6,6.8 M964.3,606.1l31.5,7.5 M953.1,612.5
		l31.2,8.3 M941.7,618.6l31,9 M930.2,624.5l30.9,9.6 M918.5,630.3l30.7,10.2 M906.8,635.8l30.5,10.7 M895,641.2l30.3,11.2
		 M883,646.4l30.1,11.7 M871,651.4l30,12.1 M858.9,656.3l29.8,12.5 M846.7,661l29.7,12.8 M834.5,665.6l29.5,13.1 M822.3,670.2
		l29.4,13.4 M809.9,674.6l29.3,13.7 M797.6,678.9l29.2,13.9 M785.2,683.2l29.1,14.1 M772.7,687.4l29,14.2 M760.2,691.7l29.1,14.2
		 M747.5,696.3l29.3,13.8 M732,704.2l32.4,10.3 M724,710.4l28.6,8.5 M712.7,715.9l32.3,8.2 M701,721.2l30.4,11.1 M689,726.3
		l30.1,11.8 M676.9,731.3l29.9,12.2 M664.8,736.2l29.8,12.5 M652.6,741.1l29.7,12.7 M640.4,745.9l29.6,12.9 M628.1,750.7l29.6,12.9
		 M615.8,755.4l29.6,13 M603.6,760.2l29.5,13.1 M591.3,764.8l29.5,13.2 M579,769.5l29.5,13.3 M566.7,774.1l29.4,13.3 M554.4,778.7
		l29.4,13.4 M542,783.3l29.4,13.4 M529.6,787.9l29.4,13.5 M517.3,792.5l29.4,13.5 M505,797l29.3,13.5 M492.6,801.5l29.4,13.6
		 M480.3,806.2l29.3,13.6 M467.9,810.7l29.3,13.5 M455.5,815l29.3,13.6 M443.1,819.5l29.3,13.7 M430.8,824l29.3,13.7 M418.4,828.5
		l29.3,13.7 M406,833l29.2,13.7 M393.6,837.5l29.2,13.8 M381.2,841.9l29.2,13.8 M368.8,846.3l29.2,13.8 M356.4,850.8l29.2,13.8
		 M344,855.2l29.2,13.9 M331.6,859.6l29.2,13.9 M319.2,864l29.2,13.9 M306.8,868.4l29.2,14 M297.7,874.6l29.2,13.9"/>
</g>
</svg>
