<?xml version="1.0" encoding="utf-8"?>
<!-- Generator: Adobe Illustrator 21.1.0, SVG Export Plug-In . SVG Version: 6.00 Build 0)  -->
<svg version="1.1" id="Leute" xmlns="http://www.w3.org/2000/svg" xmlns:xlink="http://www.w3.org/1999/xlink" x="0px" y="0px"
	 viewBox="0 0 1486 916" style="enable-background:new 0 0 1486 916;" xml:space="preserve">
<style type="text/css">
	.st0{clip-path:url(#SVGID_2_);}
	.st1{fill:none;stroke:#E20613;stroke-width:4.92;}
</style>
<title>3-Ebenen</title>
<g>
	<g>
		<g>
			<defs>
				<rect id="SVGID_1_" x="-68" y="-12" width="1567.7" height="939.1"/>
			</defs>
			<clipPath id="SVGID_2_">
				<use xlink:href="#SVGID_1_"  style="overflow:visible;"/>
			</clipPath>
			<g class="st0">
				<path class="st1" d="M-32.6,98.4l-32.5-0.1 M-22.9,90.8l-32.2-3.1 M-12.5,83.7l-31.9-5.2 M-1.9,77.2l-31.5-7 M9.3,71.1
					l-31.2-8.6 M20.1,65.9l-30.2-10.3 M30.6,63.3L2.1,49.2 M42.7,61.8L16,43.2 M55.4,61.1L30.6,40.2 M68.2,60.7L44.4,38.8
					 M81.2,60.7L58,38.1 M94.1,60.8L71.4,37.7 M107.1,61.2L84.8,37.8 M120.2,61.8l-22-23.7 M133.2,62.5l-21.7-23.9 M146.2,63.3
					l-21.5-24.1 M159.3,64.2L138,39.9 M172.4,65.1l-21.1-24.4 M185.4,66.2l-21-24.6 M198.5,67.3l-20.8-24.7 M211.6,68.5L191,43.7
					 M224.7,69.8l-20.6-24.9 M237.8,71.1l-20.4-25 M250.8,72.5l-20.3-25.1 M263.9,74l-20.2-25.2 M276.9,75.5l-20.1-25.3 M289.9,77.1
					l-20-25.4 M302.9,78.7L283,53.2 M316,80.4l-19.8-25.6 M329,82.1l-19.7-25.6 M342,83.9l-19.6-25.7 M355,85.7l-19.4-25.8
					 M368,87.7l-19.3-25.9 M380.9,89.6l-19.2-26 M393.9,91.7l-19-26.1 M406.8,93.9l-18.9-26.2 M419.7,96.1L401,69.8 M432.5,98.4
					l-18.4-26.5 M445.3,100.9l-18.2-26.7 M458,103.6l-17.8-27 M470.6,106.4l-17.4-27.2 M483,109.6L466.3,82 M494.6,113.3l-15.2-28.2
					 M506.7,118.2l-14.1-29.7 M519.5,122.9l-13.2-29.6 M532.1,127.1l-14.1-29 M544.8,131.1l-14.6-28.8 M557.3,135.1l-14.8-28.7
					 M569.9,139.1L555,110.5 M582.5,143.1l-15-28.7 M595,147l-14.9-28.7 M607.6,151l-14.9-28.7 M620.1,154.9l-14.9-28.7 M632.7,159
					l-14.8-28.7 M645.2,163.1l-14.7-28.8 M657.7,167.1L643,138.3 M670.1,171.2l-14.6-28.8 M682.5,175.4L668,146.5 M695,179.6
					l-14.3-29 M707.4,183.8l-14.2-29 M719.8,188.1L705.7,159 M732.2,192.5l-14-29.1 M744.5,196.9l-13.8-29.2 M756.9,201.4
					l-13.7-29.3 M769.1,206l-13.6-29.3 M781.4,210.6L768,181.2 M793.6,215.2l-13.3-29.5 M806,220.1l-13.1-29.5 M818.2,224.9
					l-12.9-29.6 M830.3,229.8l-12.8-29.7 M842.4,234.7l-12.5-29.8 M854.5,239.8L842.2,210 M866.6,244.9L854.4,215 M878.5,250.1
					l-11.9-30 M890.5,255.4l-11.7-30.1 M902.4,260.8l-11.5-30.2 M914.3,266.3L903.1,236 M926.1,271.9l-11-30.4 M937.8,277.6
					l-10.6-30.5 M949.6,283.4l-10.4-30.6 M961.2,289.3l-10.1-30.7 M972.8,295.3l-9.8-30.8 M984.3,301.5l-9.5-30.9 M995.8,307.8
					l-9.1-31 M1007.1,314.2l-8.7-31.1 M1018.3,320.8l-8.4-31.2 M1029.5,327.5l-8-31.3 M1040.5,334.4l-7.6-31.5 M1051.4,341.4
					l-7-31.5 M1062.2,348.6l-6.5-31.6 M1072.9,356l-6-31.8 M1083.4,363.5l-5.4-31.8 M1093.8,371.3l-4.8-31.9 M1100.5,377.3
					l-0.7-30.1 M1107.2,388.2l3.3-33 M1113.3,399.2l8.5-31.1 M1118.7,410.5l10-30.7 M1123.4,422l11.7-30.1 M1127.3,433.7l13.7-29.2
					 M1130.4,445.5l15.7-28 M1132.5,457.8l17.8-27 M1133.5,469.9l20-25.3 M1133.4,481.8l22.2-23.3 M1132.2,493.9l24.3-21.2
					 M1129.8,505.8l26.2-18.9 M1126.3,517.3l27.8-16.4 M1121.7,528.7l29.2-13.6 M1116.3,539.6l30.3-11.1 M1109.9,550.2l31.1-8.6
					 M1102.7,560.4l31.7-6.4 M1095,570l32-4.3 M1086.5,579.3l32.2-2.3 M1077.6,588.2l32.3-0.6 M1068.2,596.7l32.3,1 M1058.4,604.9
					l32.2,2.4 M1048.3,612.7l32.2,3.6 M1037.9,620.2l32,4.8 M1027.3,627.4l31.8,5.8 M1016.4,634.3l31.6,6.8 M1005.3,641l31.5,7.5
					 M994.1,647.4l31.2,8.3 M982.7,653.5l31,9 M971.2,659.4l30.9,9.6 M959.5,665.2l30.7,10.2 M947.8,670.7l30.5,10.7 M936,676.1
					l30.3,11.2 M924,681.3l30.1,11.7 M912,686.3l30,12.1 M899.9,691.2l29.8,12.5 M887.7,695.9l29.7,12.8 M875.5,700.5l29.5,13.1
					 M863.3,705.1l29.4,13.4 M850.9,709.5l29.3,13.7 M838.6,713.8l29.2,13.9 M826.2,718.1l29.1,14.1 M813.7,722.3l29,14.2
					 M801.2,726.6l29.1,14.2 M788.5,731.2l29.3,13.8 M773,739.1l32.4,10.3 M765,745.3l28.6,8.5 M753.7,750.8L786,759 M742,756.1
					l30.4,11.1 M730,761.2l30.1,11.8 M717.9,766.2l29.9,12.2 M705.8,771.1l29.8,12.5 M693.6,776l29.7,12.7 M681.4,780.8l29.6,12.9
					 M669.1,785.6l29.6,12.9 M656.8,790.3l29.6,13 M644.6,795.1l29.5,13.1 M632.3,799.7l29.5,13.2 M620,804.4l29.5,13.3 M607.7,809
					l29.4,13.3 M595.4,813.6l29.4,13.4 M583,818.2l29.4,13.4 M570.6,822.8l29.4,13.5 M558.3,827.4l29.4,13.5 M546,831.9l29.3,13.5
					 M533.6,836.4L563,850 M521.3,841.1l29.3,13.6 M508.9,845.6l29.3,13.5 M496.5,849.9l29.3,13.6 M484.1,854.4l29.3,13.7
					 M471.8,858.9l29.3,13.7 M459.4,863.4l29.3,13.7 M447,867.9l29.2,13.7 M434.6,872.4l29.2,13.8 M422.2,876.8l29.2,13.8
					 M409.8,881.2L439,895 M397.4,885.7l29.2,13.8 M385,890.1l29.2,13.9 M372.6,894.5l29.2,13.9 M360.2,898.9l29.2,13.9
					 M347.8,903.3l29.2,14 M338.7,909.5l29.2,13.9"/>
				<path class="st1" d="M170.5,34.4L186,5.5 M173.7,47.1l16.4-27.9 M176.9,59.9l16.6-27.7 M180,72.8l16.8-27.6 M183.1,85.6
					L199.9,58 M186.2,98.5l16.9-27.6 M189.3,111.4l16.9-27.5 M192.3,124.2l17-27.5 M195.3,137.1l17-27.5 M198.3,150l17-27.5
					 M201.3,162.9l17.1-27.4 M204.3,175.8l17.1-27.4 M207.3,188.7l17.1-27.4 M210.2,201.6l17.1-27.4 M213.2,214.5l17.2-27.4
					 M216.3,227.3l17.1-27.3 M218.5,239.6l17.8-26.7 M220.3,252.4l19.1-26.2 M221.9,265.3l19.8-25.6 M228,284.2l15.4-31 M241,294.4
					l3.9-27.9 M253.6,301.2l-7-30.7 M266.2,306.9l-10.4-30.4 M278.7,312.1l-11.9-30 M291.2,317l-12.7-29.7 M303.8,321.6l-13.3-29.4
					 M316.4,326.1l-13.8-29.2 M329.1,330.4L315,301.3 M341.7,334.6l-14.4-28.9 M354.4,338.7l-14.6-28.8 M367,342.7L352.2,314
					 M379.7,346.6l-15-28.6 M392.4,350.5L377.3,322 M405.2,354.5L390,325.9 M418,358.2l-15.3-28.4 M430.7,362l-15.4-28.4
					 M443.5,365.7L428,337.4 M456.2,369.3L440.6,341 M469,373l-15.7-28.3 M481.7,376.6l-15.8-28.2 M494.5,380.2L478.7,352
					 M507.3,383.8l-15.9-28.2 M520,387.3l-15.9-28.1 M532.8,390.8l-16-28.1 M545.6,394.3l-16-28.1 M558.4,397.8l-16-28.1
					 M571.2,401.3l-16.1-28 M584,404.7l-16.1-28 M596.8,408.2l-16.1-28 M609.6,411.6l-16.2-28 M622.4,415l-16.2-28 M635.2,418.4
					l-16.2-28 M648,421.8l-16.2-28 M660.8,425.1l-16.2-28 M673.6,428.5l-16.2-28 M686.4,431.8L670.2,404 M699.1,435.4l-16.2-28
					 M711.9,438.8l-16.2-28 M724.7,442.1l-16.2-28 M737.5,445.5l-16.2-28 M750.3,449l-16.1-28 M763,452.6l-16-28.1 M775.7,456.2
					l-15.9-28.1 M788.2,459.8l-15.6-28.2 M800.4,463.7l-15-28.5 M813.7,468.2L798.3,439 M827,471.5l-15.3-28 M840.2,474.2L822.9,447
					 M853.3,476.8l-17.8-26.9 M866.4,479.3l-18.1-26.7 M879.4,481.6L861.1,455 M892.5,484L874,457.5 M905.6,486.3L887,459.9
					 M918.7,488.5L900.1,462 M931.8,490.6l-18.7-26.3 M944.9,492.8l-18.8-26.3 M958,495.1l-18.8-26.3 M971.1,497.2L952.2,471
					 M984.2,499.3l-19-26.2 M997.2,501.4l-18.9-26.2 M1010.3,503.4l-19-26.2 M1023.4,505.5l-19-26.1 M1036.4,507.5l-19-26.1
					 M1049.6,509.6l-19.1-26.1 M1062.7,511.6l-19.1-26.1 M1075.8,513.6l-19.1-26.1 M1088.9,515.6l-19.1-26.1 M1101.9,517.6l-19.1-26
					 M1115,519.6l-19.2-26 M1128.1,521.6l-19.2-26 M1141.2,523.6l-19.2-26 M1154.3,525.6l-19.2-26 M1167.4,527.6l-19.2-26
					 M1180.6,529.6l-19.2-26 M1193.7,531.5l-19.2-26 M1206.8,533.4l-19.2-26 M1219.9,535.3l-19.3-26 M1233,537.2l-19.3-25.9
					 M1246.1,539.2l-19.3-25.9 M1259.2,541.1l-19.2-25.9 M1272.4,543l-19.3-25.9 M1285.5,544.9l-19.3-25.9 M1298.6,546.8l-19.3-25.9
					 M1311.7,548.7l-19.3-25.9 M1324.8,550.6l-19.3-25.9 M1337.9,552.5l-19.3-25.9 M1351,554.4l-19.4-25.9 M1364.2,556.3l-19.4-25.9
					 M1377.3,558.2l-19.4-25.9 M1390.4,560l-19.4-25.8 M1405.1,560.9l-21-24.9 M1418.4,561l-21.2-23.1 M1431.6,561.1l-22.7-23
					 M1444.9,561.1l-22.7-23 M1458.2,561.1l-22.7-23 M1471.4,561.1l-22.7-23 M1484.7,561.1l-22.7-23 M1498,561.1l-22.7-23
					 M163.3,27.2l15.5-28.9 M157.3,20.2l15.5-28.9 M150.3,13.2l15.5-28.9"/>
				<path class="st1" d="M8.9,410.2l-32.2-3.7 M19.9,405.4l-30.9-10 M31.7,401.3L2.2,388 M43.9,397.8l-28.6-15.1 M56.4,394.8
					l-27.9-16.4 M69.1,392.2l-27.3-17.4 M81.8,389.8L55,371.7 M94.6,387.7L68.3,369 M107.5,385.9l-26-19.2 M120.4,384.3l-25.7-19.6
					 M133.4,382.8l-25.4-20 M146.4,381.5l-25.1-20.3 M159.5,380.3l-24.9-20.6 M172.6,379.2l-24.7-20.9 M185.7,378.3l-24.5-21.1
					 M198.7,377.5l-24.3-21.3 M211.8,376.9l-24-21.6 M223.9,376.6l-22.8-22.1 M237.1,377.4l-22.6-23.5 M250.3,378.1L228.7,354
					 M263.4,378.9l-21.5-24.1 M276.6,379.6l-21.5-24.1 M289.8,380.4l-21.5-24.1 M303,381.1L281.5,357 M316.2,381.8l-21.5-24.1
					 M329.4,382.5l-21.5-24.1 M342.6,383.3l-21.5-24.1 M355.8,384l-21.5-24.1 M369,384.7l-21.6-24.1 M382.2,385.5l-21.6-24.1
					 M395.4,386.2l-21.6-24.1 M408.6,386.9L387,362.8 M421.7,387.6l-21.5-24 M435,388.4l-21.6-24.1 M448.2,389.1l-21.6-24
					 M461.4,389.8l-21.6-24.1 M474.5,390.6l-21.6-24.1 M487.8,391.2l-21.6-24.1 M501,391.9l-21.6-24.1 M514.2,392.7l-21.6-24
					 M527.4,393.4l-21.6-24 M540.5,394.1l-21.6-24 M553.8,394.8l-21.6-24 M567,395.5l-21.6-24 M580.2,396.2l-21.6-24 M593.4,397
					l-21.6-24 M606.6,397.7l-21.6-24 M619.8,398.4l-21.6-24 M633,399l-21.6-24 M646.2,399.7l-21.6-24 M659.4,400.4l-21.6-24
					 M672.6,401.1l-21.6-24 M685.8,401.8l-21.6-24 M699,402.4l-21.6-24 M712.1,403.1l-21.7-24 M725.3,403.7l-21.7-24 M738.5,404.4
					l-21.7-24 M751.8,405.1l-21.7-24 M765,405.7l-21.7-24 M778.2,406.4l-21.7-24 M791.4,407.1l-21.7-24 M804.6,407.7l-21.7-23.9
					 M817.8,408.3l-21.7-23.9 M831,409l-21.7-23.9 M844.2,409.6l-21.7-23.9 M857.4,410.2l-21.8-23.9 M870.6,410.8l-21.8-23.9
					 M883.9,411.4L862,387.5 M897,412.1l-21.8-23.8 M910.2,412.6l-21.8-23.8 M923.4,413.2l-21.9-23.8 M936.6,413.7l-21.9-23.8
					 M949.8,414.3L928,390.5 M963.2,414.7l-22-23.7 M976.4,415.1l-22.1-23.6 M989.8,415.4L967.5,392 M1004.1,415.3l-23.5-22.9
					 M1019.6,412.1l-25.9-19.4 M1033.3,406.5l-28.4-14.3 M1045.8,399.7l-30.3-10.4 M1057.6,392l-31.3-7.5 M1068.6,383.8l-31.8-5.4
					 M1079.2,375.2l-32-3.9 M1089.5,366.2l-32.2-2.6 M1099.4,357l-32.2-1.6 M1109,347.6l-32.3-0.7 M1118.5,338h-32.3 M1127.7,328.3
					l-32.3,0.6 M1136.7,318.4l-32.3,1.2 M1145.6,308.5l-32.3,1.7 M1154.4,298.4l-32.2,2.1 M1163,288.2l-32.2,2.5 M1171.5,278
					l-32.2,2.8 M1180,267.7l-32.2,3.2 M1188.3,257.3l-32.1,3.5 M1196.5,246.8l-32.1,3.8 M1204.6,236.3l-32.1,4 M1212.7,225.7
					l-32,4.2 M1220.7,215l-32,4.5 M1228.6,204.4l-32,4.7 M1236.4,193.6l-31.9,4.9 M1244.2,182.8l-31.9,5.1 M1251.9,172l-31.9,5.3
					 M1259.5,161.1l-31.8,5.5 M1267,150.1l-31.8,5.8 M1274.5,139.1l-31.8,6 M1281.4,119.5l-31.2,14.8 M1279.3,106.4l-21.8,17
					 M1277.3,93.4l-19,26.1 M1275.2,80.3l-19,26.1 M1273.1,67.3l-19,26.1 M1276.5,66.8l-24.4,13.5 M1285.8,57.5l-32.3,0.1
					 M1295.2,48.1l-32.3,0.1 M1304.5,38.7l-32.3,0.1 M1312.2,31.1l-30.7-1.7 M1323.2,23.9l-32.4-3.8 M1334.3,16.7l-31.6-6.7
					 M1345.4,9.5l-31.6-6.7"/>
			</g>
		</g>
	</g>
</g>
</svg>
