<?xml version="1.0" encoding="utf-8"?>
<!-- Generator: Adobe Illustrator 21.1.0, SVG Export Plug-In . SVG Version: 6.00 Build 0)  -->
<svg version="1.1" id="Leute" xmlns="http://www.w3.org/2000/svg" xmlns:xlink="http://www.w3.org/1999/xlink" x="0px" y="0px"
	 viewBox="0 0 1486 916" style="enable-background:new 0 0 1486 916;" xml:space="preserve">
<style type="text/css">
	.st0{clip-path:url(#SVGID_2_);fill:none;stroke:#E20613;stroke-width:4.92;}
</style>
<title>3-Ebenen</title>
<g>
	<g>
		<defs>
			<rect id="SVGID_1_" x="-68" y="-12" width="1567.7" height="939.1"/>
		</defs>
		<clipPath id="SVGID_2_">
			<use xlink:href="#SVGID_1_"  style="overflow:visible;"/>
		</clipPath>
		<path class="st0" d="M-32.6,98.4l-32.5-0.1 M-22.9,90.8l-32.2-3.1 M-12.5,83.7l-31.9-5.2 M-1.9,77.2l-31.5-7 M9.3,71.1l-31.2-8.6
			 M20.1,65.9l-30.2-10.3 M30.6,63.3L2.1,49.2 M42.7,61.8L16,43.2 M55.4,61.1L30.6,40.2 M68.2,60.7L44.4,38.8 M81.2,60.7L58,38.1
			 M94.1,60.8L71.4,37.7 M107.1,61.2L84.8,37.8 M120.2,61.8l-22-23.7 M133.2,62.5l-21.7-23.9 M146.2,63.3l-21.5-24.1 M159.3,64.2
			L138,39.9 M172.4,65.1l-21.1-24.4 M185.4,66.2l-21-24.6 M198.5,67.3l-20.8-24.7 M211.6,68.5L191,43.7 M224.7,69.8l-20.6-24.9
			 M237.8,71.1l-20.4-25 M250.8,72.5l-20.3-25.1 M263.9,74l-20.2-25.2 M276.9,75.5l-20.1-25.3 M289.9,77.1l-20-25.4 M302.9,78.7
			L283,53.2 M316,80.4l-19.8-25.6 M329,82.1l-19.7-25.6 M342,83.9l-19.6-25.7 M355,85.7l-19.4-25.8 M368,87.7l-19.3-25.9
			 M380.9,89.6l-19.2-26 M393.9,91.7l-19-26.1 M406.8,93.9l-18.9-26.2 M419.7,96.1L401,69.8 M432.5,98.4l-18.4-26.5 M445.3,100.9
			l-18.2-26.7 M458,103.6l-17.8-27 M470.6,106.4l-17.4-27.2 M483,109.6L466.3,82 M494.6,113.3l-15.2-28.2 M506.7,118.2l-14.1-29.7
			 M519.5,122.9l-13.2-29.6 M532.1,127.1l-14.1-29 M544.8,131.1l-14.6-28.8 M557.3,135.1l-14.8-28.7 M569.9,139.1L555,110.5
			 M582.5,143.1l-15-28.7 M595,147l-14.9-28.7 M607.6,151l-14.9-28.7 M620.1,154.9l-14.9-28.7 M632.7,159l-14.8-28.7 M645.2,163.1
			l-14.7-28.8 M657.7,167.1L643,138.3 M670.1,171.2l-14.6-28.8 M682.5,175.4L668,146.5 M695,179.6l-14.3-29 M707.4,183.8l-14.2-29
			 M719.8,188.1L705.7,159 M732.2,192.5l-14-29.1 M744.5,196.9l-13.8-29.2 M756.9,201.4l-13.7-29.3 M769.1,206l-13.6-29.3
			 M781.4,210.6L768,181.2 M793.6,215.2l-13.3-29.5 M806,220.1l-13.1-29.5 M818.2,224.9l-12.9-29.6 M830.3,229.8l-12.8-29.7
			 M842.4,234.7l-12.5-29.8 M854.5,239.8L842.2,210 M866.6,244.9L854.4,215 M878.5,250.1l-11.9-30 M890.5,255.4l-11.7-30.1
			 M902.4,260.8l-11.5-30.2 M914.3,266.3L903.1,236 M926.1,271.9l-11-30.4 M937.8,277.6l-10.6-30.5 M949.6,283.4l-10.4-30.6
			 M961.2,289.3l-10.1-30.7 M972.8,295.3l-9.8-30.8 M984.3,301.5l-9.5-30.9 M995.8,307.8l-9.1-31 M1007.1,314.2l-8.7-31.1
			 M1018.3,320.8l-8.4-31.2 M1029.5,327.5l-8-31.3 M1040.5,334.4l-7.6-31.5 M1051.4,341.4l-7-31.5 M1062.2,348.6l-6.5-31.6
			 M1072.9,356l-6-31.8 M1083.4,363.5l-5.4-31.8 M1093.8,371.3l-4.8-31.9 M1100.5,377.3l-0.7-30.1 M1107.2,388.2l3.3-33
			 M1113.3,399.2l8.5-31.1 M1118.7,410.5l10-30.7 M1123.4,422l11.7-30.1 M1127.3,433.7l13.7-29.2 M1130.4,445.5l15.7-28
			 M1132.5,457.8l17.8-27 M1133.5,469.9l20-25.3 M1133.4,481.8l22.2-23.3 M1132.2,493.9l24.3-21.2 M1129.8,505.8l26.2-18.9
			 M1126.3,517.3l27.8-16.4 M1121.7,528.7l29.2-13.6 M1116.3,539.6l30.3-11.1 M1109.9,550.2l31.1-8.6 M1102.7,560.4l31.7-6.4
			 M1095,570l32-4.3 M1086.5,579.3l32.2-2.3 M1077.6,588.2l32.3-0.6 M1068.2,596.7l32.3,1 M1058.4,604.9l32.2,2.4 M1048.3,612.7
			l32.2,3.6 M1037.9,620.2l32,4.8 M1027.3,627.4l31.8,5.8 M1016.4,634.3l31.6,6.8 M1005.3,641l31.5,7.5 M994.1,647.4l31.2,8.3
			 M982.7,653.5l31,9 M971.2,659.4l30.9,9.6 M959.5,665.2l30.7,10.2 M947.8,670.7l30.5,10.7 M936,676.1l30.3,11.2 M924,681.3
			l30.1,11.7 M912,686.3l30,12.1 M899.9,691.2l29.8,12.5 M887.7,695.9l29.7,12.8 M875.5,700.5l29.5,13.1 M863.3,705.1l29.4,13.4
			 M850.9,709.5l29.3,13.7 M838.6,713.8l29.2,13.9 M826.2,718.1l29.1,14.1 M813.7,722.3l29,14.2 M801.2,726.6l29.1,14.2
			 M788.5,731.2l29.3,13.8 M773,739.1l32.4,10.3 M765,745.3l28.6,8.5 M753.7,750.8L786,759 M742,756.1l30.4,11.1 M730,761.2
			l30.1,11.8 M717.9,766.2l29.9,12.2 M705.8,771.1l29.8,12.5 M693.6,776l29.7,12.7 M681.4,780.8l29.6,12.9 M669.1,785.6l29.6,12.9
			 M656.8,790.3l29.6,13 M644.6,795.1l29.5,13.1 M632.3,799.7l29.5,13.2 M620,804.4l29.5,13.3 M607.7,809l29.4,13.3 M595.4,813.6
			l29.4,13.4 M583,818.2l29.4,13.4 M570.6,822.8l29.4,13.5 M558.3,827.4l29.4,13.5 M546,831.9l29.3,13.5 M533.6,836.4L563,850
			 M521.3,841.1l29.3,13.6 M508.9,845.6l29.3,13.5 M496.5,849.9l29.3,13.6 M484.1,854.4l29.3,13.7 M471.8,858.9l29.3,13.7
			 M459.4,863.4l29.3,13.7 M447,867.9l29.2,13.7 M434.6,872.4l29.2,13.8 M422.2,876.8l29.2,13.8 M409.8,881.2L439,895 M397.4,885.7
			l29.2,13.8 M385,890.1l29.2,13.9 M372.6,894.5l29.2,13.9 M360.2,898.9l29.2,13.9 M347.8,903.3l29.2,14 M338.7,909.5l29.2,13.9"/>
	</g>
</g>
</svg>
