<?xml version="1.0" encoding="utf-8"?>
<!-- Generator: Adobe Illustrator 21.1.0, SVG Export Plug-In . SVG Version: 6.00 Build 0)  -->
<svg version="1.1" id="Leute" xmlns="http://www.w3.org/2000/svg" xmlns:xlink="http://www.w3.org/1999/xlink" x="0px" y="0px"
	 viewBox="0 0 1567.7 939.1" style="enable-background:new 0 0 1567.7 939.1;" xml:space="preserve">
<style type="text/css">
	.st0{clip-path:url(#SVGID_2_);}
	.st1{fill:none;stroke:#E20613;stroke-width:4.92;}
</style>
<title>3-Ebenen</title>
<g>
	<g>
		<defs>
			<rect id="SVGID_1_" width="1567.7" height="939.1"/>
		</defs>
		<clipPath id="SVGID_2_">
			<use xlink:href="#SVGID_1_"  style="overflow:visible;"/>
		</clipPath>
		<g class="st0">
			<path class="st1" d="M35.4,110.4l-32.5-0.1 M45.1,102.8l-32.2-3.1 M55.5,95.7l-31.9-5.2 M66.1,89.2l-31.5-7 M77.3,83.1l-31.2-8.6
				 M88.1,77.9L57.9,67.6 M98.6,75.3L70.1,61.2 M110.7,73.8L84,55.2 M123.4,73.1L98.6,52.2 M136.2,72.7l-23.8-21.9 M149.2,72.7
				L126,50.1 M162.1,72.8l-22.7-23.1 M175.1,73.2l-22.3-23.4 M188.2,73.8l-22-23.7 M201.2,74.5l-21.7-23.9 M214.2,75.3l-21.5-24.1
				 M227.3,76.2L206,51.9 M240.4,77.1l-21.1-24.4 M253.4,78.2l-21-24.6 M266.5,79.3l-20.8-24.7 M279.6,80.5L259,55.7 M292.7,81.8
				l-20.6-24.9 M305.8,83.1l-20.4-25 M318.8,84.5l-20.3-25.1 M331.9,86l-20.2-25.2 M344.9,87.5l-20.1-25.3 M357.9,89.1l-20-25.4
				 M370.9,90.7L351,65.2 M384,92.4l-19.8-25.6 M397,94.1l-19.7-25.6 M410,95.9l-19.6-25.7 M423,97.7l-19.4-25.8 M436,99.7
				l-19.3-25.9 M448.9,101.6l-19.2-26 M461.9,103.7l-19-26.1 M474.8,105.9l-18.9-26.2 M487.7,108.1L469,81.8 M500.5,110.4
				l-18.4-26.5 M513.3,112.9l-18.2-26.7 M526,115.6l-17.8-27 M538.6,118.4l-17.4-27.2 M551,121.6L534.3,94 M562.6,125.3l-15.2-28.2
				 M574.7,130.2l-14.1-29.7 M587.5,134.9l-13.2-29.6 M600.1,139.1l-14.1-29 M612.8,143.1l-14.6-28.8 M625.3,147.1l-14.8-28.7
				 M637.9,151.1L623,122.5 M650.5,155.1l-15-28.7 M663,159l-14.9-28.7 M675.6,163l-14.9-28.7 M688.1,166.9l-14.9-28.7 M700.7,171
				l-14.8-28.7 M713.2,175.1l-14.7-28.8 M725.7,179.1L711,150.3 M738.1,183.2l-14.6-28.8 M750.5,187.4L736,158.5 M763,191.6
				l-14.3-29 M775.4,195.8l-14.2-29 M787.8,200.1L773.7,171 M800.2,204.5l-14-29.1 M812.5,208.9l-13.8-29.2 M824.9,213.4l-13.7-29.3
				 M837.1,218l-13.6-29.3 M849.4,222.6L836,193.2 M861.6,227.2l-13.3-29.5 M874,232.1l-13.1-29.5 M886.2,236.9l-12.9-29.6
				 M898.3,241.8l-12.8-29.7 M910.4,246.7l-12.5-29.8 M922.5,251.8L910.2,222 M934.6,256.9L922.4,227 M946.5,262.1l-11.9-30
				 M958.5,267.4l-11.7-30.1 M970.4,272.8l-11.5-30.2 M982.3,278.3L971.1,248 M994.1,283.9l-11-30.4 M1005.8,289.6l-10.6-30.5
				 M1017.6,295.4l-10.4-30.6 M1029.2,301.3l-10.1-30.7 M1040.8,307.3l-9.8-30.8 M1052.3,313.5l-9.5-30.9 M1063.8,319.8l-9.1-31
				 M1075.1,326.2l-8.7-31.1 M1086.3,332.8l-8.4-31.2 M1097.5,339.5l-8-31.3 M1108.5,346.4l-7.6-31.5 M1119.4,353.4l-7-31.5
				 M1130.2,360.6l-6.5-31.6 M1140.9,368l-6-31.8 M1151.4,375.5l-5.4-31.8 M1161.8,383.3l-4.8-31.9 M1168.5,389.3l-0.7-30.1
				 M1175.2,400.2l3.3-33 M1181.3,411.2l8.5-31.1 M1186.7,422.5l10-30.7 M1191.4,434l11.7-30.1 M1195.3,445.7l13.7-29.2
				 M1198.4,457.5l15.7-28 M1200.5,469.8l17.8-27 M1201.5,481.9l20-25.3 M1201.4,493.8l22.2-23.3 M1200.2,505.9l24.3-21.2
				 M1197.8,517.8l26.2-18.9 M1194.3,529.3l27.8-16.4 M1189.7,540.7l29.2-13.6 M1184.3,551.6l30.3-11.1 M1177.9,562.2l31.1-8.6
				 M1170.7,572.4l31.7-6.4 M1163,582l32-4.3 M1154.5,591.3l32.2-2.3 M1145.6,600.2l32.3-0.6 M1136.2,608.7l32.3,1 M1126.4,616.9
				l32.2,2.4 M1116.3,624.7l32.2,3.6 M1105.9,632.2l32,4.8 M1095.3,639.4l31.8,5.8 M1084.4,646.3l31.6,6.8 M1073.3,653l31.5,7.5
				 M1062.1,659.4l31.2,8.3 M1050.7,665.5l31,9 M1039.2,671.4l30.9,9.6 M1027.5,677.2l30.7,10.2 M1015.8,682.7l30.5,10.7
				 M1004,688.1l30.3,11.2 M992,693.3l30.1,11.7 M980,698.3l30,12.1 M967.9,703.2l29.8,12.5 M955.7,707.9l29.7,12.8 M943.5,712.5
				l29.5,13.1 M931.3,717.1l29.4,13.4 M918.9,721.5l29.3,13.7 M906.6,725.8l29.2,13.9 M894.2,730.1l29.1,14.1 M881.7,734.3l29,14.2
				 M869.2,738.6l29.1,14.2 M856.5,743.2l29.3,13.8 M841,751.1l32.4,10.3 M833,757.3l28.6,8.5 M821.7,762.8L854,771 M810,768.1
				l30.4,11.1 M798,773.2l30.1,11.8 M785.9,778.2l29.9,12.2 M773.8,783.1l29.8,12.5 M761.6,788l29.7,12.7 M749.4,792.8l29.6,12.9
				 M737.1,797.6l29.6,12.9 M724.8,802.3l29.6,13 M712.6,807.1l29.5,13.1 M700.3,811.7l29.5,13.2 M688,816.4l29.5,13.3 M675.7,821
				l29.4,13.3 M663.4,825.6l29.4,13.4 M651,830.2l29.4,13.4 M638.6,834.8l29.4,13.5 M626.3,839.4l29.4,13.5 M614,843.9l29.3,13.5
				 M601.6,848.4L631,862 M589.3,853.1l29.3,13.6 M576.9,857.6l29.3,13.5 M564.5,861.9l29.3,13.6 M552.1,866.4l29.3,13.7
				 M539.8,870.9l29.3,13.7 M527.4,875.4l29.3,13.7 M515,879.9l29.2,13.7 M502.6,884.4l29.2,13.8 M490.2,888.8l29.2,13.8
				 M477.8,893.2L507,907 M465.4,897.7l29.2,13.8 M453,902.1l29.2,13.9 M440.6,906.5l29.2,13.9 M428.2,910.9l29.2,13.9 M415.8,915.3
				l29.2,14 M406.7,921.5l29.2,13.9"/>
			<path class="st1" d="M238.5,46.4L254,17.5 M241.7,59.1l16.4-27.9 M244.9,71.9l16.6-27.7 M248,84.8l16.8-27.6 M251.1,97.6
				L267.9,70 M254.2,110.5l16.9-27.6 M257.3,123.4l16.9-27.5 M260.3,136.2l17-27.5 M263.3,149.1l17-27.5 M266.3,162l17-27.5
				 M269.3,174.9l17.1-27.4 M272.3,187.8l17.1-27.4 M275.3,200.7l17.1-27.4 M278.2,213.6l17.1-27.4 M281.2,226.5l17.2-27.4
				 M284.3,239.3l17.1-27.3 M286.5,251.6l17.8-26.7 M288.3,264.4l19.1-26.2 M289.9,277.3l19.8-25.6 M296,296.2l15.4-31 M309,306.4
				l3.9-27.9 M321.6,313.2l-7-30.7 M334.2,318.9l-10.4-30.4 M346.7,324.1l-11.9-30 M359.2,329l-12.7-29.7 M371.8,333.6l-13.3-29.4
				 M384.4,338.1l-13.8-29.2 M397.1,342.4L383,313.3 M409.7,346.6l-14.4-28.9 M422.4,350.7l-14.6-28.8 M435,354.7L420.2,326
				 M447.7,358.6l-15-28.6 M460.4,362.5L445.3,334 M473.2,366.5L458,337.9 M486,370.2l-15.3-28.4 M498.7,374l-15.4-28.4
				 M511.5,377.7L496,349.4 M524.2,381.3L508.6,353 M537,385l-15.7-28.3 M549.7,388.6l-15.8-28.2 M562.5,392.2L546.7,364
				 M575.3,395.8l-15.9-28.2 M588,399.3l-15.9-28.1 M600.8,402.8l-16-28.1 M613.6,406.3l-16-28.1 M626.4,409.8l-16-28.1
				 M639.2,413.3l-16.1-28 M652,416.7l-16.1-28 M664.8,420.2l-16.1-28 M677.6,423.6l-16.2-28 M690.4,427l-16.2-28 M703.2,430.4
				l-16.2-28 M716,433.8l-16.2-28 M728.8,437.1l-16.2-28 M741.6,440.5l-16.2-28 M754.4,443.8L738.2,416 M767.1,447.4l-16.2-28
				 M779.9,450.8l-16.2-28 M792.7,454.1l-16.2-28 M805.5,457.5l-16.2-28 M818.3,461l-16.1-28 M831,464.6l-16-28.1 M843.7,468.2
				l-15.9-28.1 M856.2,471.8l-15.6-28.2 M868.4,475.7l-15-28.5 M881.7,480.2L866.3,451 M895,483.5l-15.3-28 M908.2,486.2L890.9,459
				 M921.3,488.8l-17.8-26.9 M934.4,491.3l-18.1-26.7 M947.4,493.6L929.1,467 M960.5,496L942,469.5 M973.6,498.3L955,471.9
				 M986.7,500.5L968.1,474 M999.8,502.6l-18.7-26.3 M1012.9,504.8l-18.8-26.3 M1026,507.1l-18.8-26.3 M1039.1,509.2l-18.9-26.2
				 M1052.2,511.3l-19-26.2 M1065.2,513.4l-18.9-26.2 M1078.3,515.4l-19-26.2 M1091.4,517.5l-19-26.1 M1104.4,519.5l-19-26.1
				 M1117.6,521.6l-19.1-26.1 M1130.7,523.6l-19.1-26.1 M1143.8,525.6l-19.1-26.1 M1156.9,527.6l-19.1-26.1 M1169.9,529.6l-19.1-26
				 M1183,531.6l-19.2-26 M1196.1,533.6l-19.2-26 M1209.2,535.6l-19.2-26 M1222.3,537.6l-19.2-26 M1235.4,539.6l-19.2-26
				 M1248.6,541.6l-19.2-26 M1261.7,543.5l-19.2-26 M1274.8,545.4l-19.2-26 M1287.9,547.3l-19.3-26 M1301,549.2l-19.3-25.9
				 M1314.1,551.2l-19.3-25.9 M1327.2,553.1l-19.2-25.9 M1340.4,555l-19.3-25.9 M1353.5,556.9l-19.3-25.9 M1366.6,558.8l-19.3-25.9
				 M1379.7,560.7l-19.3-25.9 M1392.8,562.6l-19.3-25.9 M1405.9,564.5l-19.3-25.9 M1419,566.4l-19.4-25.9 M1432.2,568.3l-19.4-25.9
				 M1445.3,570.2l-19.4-25.9 M1458.4,572l-19.4-25.8 M1473.1,572.9l-21-24.9 M1486.4,573l-21.2-23.1 M1499.6,573.1l-22.7-23
				 M1512.9,573.1l-22.7-23 M1526.2,573.1l-22.7-23 M1539.4,573.1l-22.7-23 M1552.7,573.1l-22.7-23 M1566,573.1l-22.7-23
				 M231.3,39.2l15.5-28.9 M225.3,32.2l15.5-28.9 M218.3,25.2l15.5-28.9"/>
			<path class="st1" d="M76.9,422.2l-32.2-3.7 M87.9,417.4l-30.9-10 M99.7,413.3L70.2,400 M111.9,409.8l-28.6-15.1 M124.4,406.8
				l-27.9-16.4 M137.1,404.2l-27.3-17.4 M149.8,401.8L123,383.7 M162.6,399.7L136.3,381 M175.5,397.9l-26-19.2 M188.4,396.3
				l-25.7-19.6 M201.4,394.8l-25.4-20 M214.4,393.5l-25.1-20.3 M227.5,392.3l-24.9-20.6 M240.6,391.2l-24.7-20.9 M253.7,390.3
				l-24.5-21.1 M266.7,389.5l-24.3-21.3 M279.8,388.9l-24-21.6 M291.9,388.6l-22.8-22.1 M305.1,389.4l-22.6-23.5 M318.3,390.1
				L296.7,366 M331.4,390.9l-21.5-24.1 M344.6,391.6l-21.5-24.1 M357.8,392.4l-21.5-24.1 M371,393.1L349.5,369 M384.2,393.8
				l-21.5-24.1 M397.4,394.5l-21.5-24.1 M410.6,395.3l-21.5-24.1 M423.8,396l-21.5-24.1 M437,396.7l-21.6-24.1 M450.2,397.5
				l-21.6-24.1 M463.4,398.2l-21.6-24.1 M476.6,398.9L455,374.8 M489.7,399.6l-21.5-24 M503,400.4l-21.6-24.1 M516.2,401.1l-21.6-24
				 M529.4,401.8l-21.6-24.1 M542.5,402.6l-21.6-24.1 M555.8,403.2l-21.6-24.1 M569,403.9l-21.6-24.1 M582.2,404.7l-21.6-24
				 M595.4,405.4l-21.6-24 M608.5,406.1l-21.6-24 M621.8,406.8l-21.6-24 M635,407.5l-21.6-24 M648.2,408.2l-21.6-24 M661.4,409
				l-21.6-24 M674.6,409.7l-21.6-24 M687.8,410.4l-21.6-24 M701,411l-21.6-24 M714.2,411.7l-21.6-24 M727.4,412.4l-21.6-24
				 M740.6,413.1l-21.6-24 M753.8,413.8l-21.6-24 M767,414.4l-21.6-24 M780.1,415.1l-21.7-24 M793.3,415.7l-21.7-24 M806.5,416.4
				l-21.7-24 M819.8,417.1l-21.7-24 M833,417.7l-21.7-24 M846.2,418.4l-21.7-24 M859.4,419.1l-21.7-24 M872.6,419.7l-21.7-23.9
				 M885.8,420.3l-21.7-23.9 M899,421l-21.7-23.9 M912.2,421.6l-21.7-23.9 M925.4,422.2l-21.8-23.9 M938.6,422.8l-21.8-23.9
				 M951.9,423.4L930,399.5 M965,424.1l-21.8-23.8 M978.2,424.6l-21.8-23.8 M991.4,425.2l-21.9-23.8 M1004.6,425.7l-21.9-23.8
				 M1017.8,426.3L996,402.5 M1031.2,426.7l-22-23.7 M1044.4,427.1l-22.1-23.6 M1057.8,427.4l-22.3-23.4 M1072.1,427.3l-23.5-22.9
				 M1087.6,424.1l-25.9-19.4 M1101.3,418.5l-28.4-14.3 M1113.8,411.7l-30.3-10.4 M1125.6,404l-31.3-7.5 M1136.6,395.8l-31.8-5.4
				 M1147.2,387.2l-32-3.9 M1157.5,378.2l-32.2-2.6 M1167.4,369l-32.2-1.6 M1177,359.6l-32.3-0.7 M1186.5,350h-32.3 M1195.7,340.3
				l-32.3,0.6 M1204.7,330.4l-32.3,1.2 M1213.6,320.5l-32.3,1.7 M1222.4,310.4l-32.2,2.1 M1231,300.2l-32.2,2.5 M1239.5,290
				l-32.2,2.8 M1248,279.7l-32.2,3.2 M1256.3,269.3l-32.1,3.5 M1264.5,258.8l-32.1,3.8 M1272.6,248.3l-32.1,4 M1280.7,237.7l-32,4.2
				 M1288.7,227l-32,4.5 M1296.6,216.4l-32,4.7 M1304.4,205.6l-31.9,4.9 M1312.2,194.8l-31.9,5.1 M1319.9,184l-31.9,5.3
				 M1327.5,173.1l-31.8,5.5 M1335,162.1l-31.8,5.8 M1342.5,151.1l-31.8,6 M1349.4,131.5l-31.2,14.8 M1347.3,118.4l-21.8,17
				 M1345.3,105.4l-19,26.1 M1343.2,92.3l-19,26.1 M1341.1,79.3l-19,26.1 M1344.5,78.8l-24.4,13.5 M1353.8,69.5l-32.3,0.1
				 M1363.2,60.1l-32.3,0.1 M1372.5,50.7l-32.3,0.1 M1380.2,43.1l-30.7-1.7 M1391.2,35.9l-32.4-3.8 M1402.3,28.7l-31.6-6.7
				 M1413.4,21.5l-31.6-6.7"/>
		</g>
	</g>
</g>
</svg>
